<svg width="32" height="41" viewBox="0 0 32 41" fill="none" xmlns="http://www.w3.org/2000/svg">
<path d="M4.16006 5.9043C3.27641 5.9043 2.56006 6.63852 2.56006 7.5443C2.56006 8.45007 3.27641 9.1843 4.16006 9.1843H27.8401C28.7237 9.1843 29.4401 8.45007 29.4401 7.5443C29.4401 6.63852 28.7237 5.9043 27.8401 5.9043H4.16006ZM4.16006 14.7603C3.27641 14.7603 2.56006 15.4945 2.56006 16.4003C2.56006 17.3061 3.27641 18.0403 4.16006 18.0403H27.8401C28.7237 18.0403 29.4401 17.3061 29.4401 16.4003C29.4401 15.4945 28.7237 14.7603 27.8401 14.7603H4.16006ZM4.16006 23.6163C3.27641 23.6163 2.56006 24.3505 2.56006 25.2563C2.56006 26.1621 3.27641 26.8963 4.16006 26.8963H27.8401C28.7237 26.8963 29.4401 26.1621 29.4401 25.2563C29.4401 24.3505 28.7237 23.6163 27.8401 23.6163H4.16006Z" fill="black"/>
</svg>
